<?xml version="1.0" encoding="utf-8" ?>
<svg xmlns="http://www.w3.org/2000/svg" xmlns:xlink="http://www.w3.org/1999/xlink" width="130" height="109">
	<defs>
		<linearGradient id="gradient_0" gradientUnits="userSpaceOnUse" x1="-1.3652484" y1="13.596381" x2="32.365002" y2="13.596381">
			<stop offset="0" stop-color="rgb(235,11,76)"/>
			<stop offset="1" stop-color="rgb(255,57,90)"/>
		</linearGradient>
	</defs>
	<path fill="url(#gradient_0)" stroke="none" transform="matrix(3.97 0 0 3.97 0.391113 0.85498)" d="M30.2349 12.0609C30.0185 12.0609 29.8133 12.1029 29.6166 12.1632L26.5306 6.79819C26.7128 6.48415 26.8256 6.12421 26.8256 5.73476C26.8256 4.55988 25.8704 3.60463 24.6955 3.60463C24.051 3.60463 23.48 3.89836 23.0885 4.35205L18.2172 2.43893C18.2323 2.33731 18.2487 2.23569 18.2487 2.13013C18.2487 0.955248 17.2935 0 16.1186 0C14.9437 0 13.9884 0.955903 13.9884 2.13013C13.9884 2.21077 14.0035 2.28682 14.012 2.36484L9.88422 2.94573C9.52691 2.26978 8.82473 1.80232 8.00782 1.80232C6.83294 1.80232 5.87769 2.75822 5.87769 3.93245C5.87769 4.335 5.99636 4.7074 6.19108 5.02866L2.75363 8.55986C2.55498 8.49823 2.34845 8.45561 2.13013 8.45561C0.955248 8.45561 0 9.41152 0 10.5857C0 11.76 0.955903 12.7159 2.13013 12.7159C2.51957 12.7159 2.88017 12.6031 3.19421 12.4202L8.73491 15.7737C8.72705 15.8458 8.71262 15.9173 8.71262 15.992C8.71262 17.1669 9.66852 18.1222 10.8428 18.1222C11.4453 18.1222 11.9881 17.8678 12.3756 17.4639L20.5067 24.3742C20.4319 24.5912 20.3828 24.8207 20.3828 25.0626C20.3828 26.2375 21.338 27.1928 22.5129 27.1928C23.6878 27.1928 24.643 26.2375 24.643 25.0626C24.643 24.9322 24.6273 24.8056 24.6044 24.6817L30.0185 16.2982C30.0906 16.3054 30.1608 16.3199 30.2349 16.3199C31.4098 16.3199 32.365 15.3646 32.365 14.1904C32.365 13.0168 31.4098 12.0609 30.2349 12.0609ZM12.6798 7.39612L14.9325 3.89901C14.6047 3.67872 14.3445 3.3673 14.1799 3.00342L10.1012 3.5771C10.1209 3.69314 10.1373 3.8105 10.1373 3.93245C10.1373 4.51202 9.90258 5.03783 9.52494 5.42269L10.9418 7.40202C11.2092 7.28073 11.5036 7.20927 11.8164 7.20927C12.1245 7.20927 12.4149 7.27811 12.6798 7.39612ZM22.9876 6.99619L20.7198 8.95848C20.3506 8.64968 19.8812 8.45627 19.3626 8.45627C19.1849 8.45627 19.0145 8.48446 18.8493 8.52577L17.2384 3.93441C17.5754 3.72461 17.8462 3.42434 18.0225 3.06702L22.7306 4.91589C22.625 5.1683 22.5654 5.44498 22.5654 5.73542C22.5647 6.20813 22.7247 6.64215 22.9876 6.99619ZM16.6326 4.19076C16.4674 4.23272 16.2963 4.26092 16.1179 4.26092C15.9153 4.26092 15.7232 4.22355 15.5364 4.17044L13.2273 7.75672C13.5997 8.08846 13.8501 8.54478 13.9183 9.06272L17.4174 9.72425C17.5924 9.33219 17.8822 9.00634 18.2435 8.78146L16.6326 4.19076ZM6.61593 5.53283C6.99029 5.85868 7.47349 6.06323 8.00782 6.06323C8.36579 6.06323 8.69885 5.9662 8.9952 5.80885L10.395 7.76524C9.96421 8.15468 9.68819 8.71131 9.68688 9.33612L4.22158 10.2088C4.12192 9.65672 3.80985 9.18139 3.37254 8.86473L6.61593 5.53283ZM28.1356 14.4952C28.1205 14.3949 28.1047 14.2946 28.1047 14.191C28.1047 13.4679 28.4686 12.83 29.0213 12.4444L26.0834 7.33777C25.7097 7.66231 25.2285 7.86555 24.6955 7.86555C24.2313 7.86555 23.8038 7.71213 23.4537 7.45906L21.1564 9.44758C21.3669 9.77736 21.4927 10.1661 21.4927 10.5857C21.4927 11.1863 21.2403 11.7278 20.8384 12.1153L22.648 15.4334C22.8951 15.3331 23.1646 15.2748 23.4478 15.2748C24.1998 15.2748 24.8587 15.6695 25.2377 16.2595L28.1356 14.4952ZM12.0911 11.442C13.0063 11.3227 13.7413 10.6277 13.9078 9.72753L17.2548 10.3602C17.2463 10.4356 17.2318 10.509 17.2318 10.5857C17.2318 11.0427 17.38 11.4649 17.6265 11.8124L12.8791 15.4046C12.6903 14.7536 12.2045 14.2337 11.5731 14.0002L12.0911 11.442ZM9.79637 9.98257L4.23076 10.8709C4.17437 11.2925 3.99604 11.6721 3.72855 11.979L8.90734 15.1135C9.24368 14.3785 9.98191 13.8639 10.8421 13.8639C10.8723 13.8639 10.9004 13.8717 10.9299 13.8731L11.4236 11.4302C10.6507 11.2846 10.0317 10.7201 9.79637 9.98257ZM12.9545 16.1697L18.09 12.2838C18.446 12.5513 18.8834 12.7159 19.362 12.7159C19.6983 12.7159 20.0123 12.6306 20.2956 12.491L22.0874 15.7783C21.7078 16.0963 21.4396 16.5382 21.3524 17.0476L12.948 16.234C12.9506 16.2117 12.9532 16.1907 12.9545 16.1697ZM23.7147 19.5082L22.9155 22.9745C23.5022 23.0872 24.0005 23.4426 24.3106 23.9304L29.3517 16.1238C28.9105 15.9206 28.5552 15.5718 28.3375 15.1391L25.5006 16.868C25.5458 17.0404 25.578 17.2187 25.578 17.4056C25.578 18.488 24.763 19.3751 23.7147 19.5082ZM12.7755 16.8758L21.3479 17.7065C21.4757 18.6047 22.1595 19.3246 23.0446 19.4944L22.2454 22.9607C21.6645 23.0341 21.1597 23.3383 20.8214 23.7829L12.75 16.9224C12.7578 16.9066 12.7677 16.8916 12.7755 16.8758Z" fill-rule="evenodd"/>
</svg>
