<?xml version="1.0" encoding="utf-8" ?>
<svg xmlns="http://www.w3.org/2000/svg" xmlns:xlink="http://www.w3.org/1999/xlink" width="108" height="108">
	<path fill="rgb(255,57,90)" stroke="none" transform="matrix(4 0 0 4 36 36)" d="M9.79612 0.203291C9.52427 -0.0677638 9.05825 -0.0677638 8.78641 0.203291L4.98058 3.99806L1.21359 0.242014C0.941748 -0.0290416 0.475728 -0.0290416 0.203883 0.242014C-0.0679612 0.513069 -0.0679612 0.977735 0.203883 1.24879L3.97087 5.00484L0.203883 8.76089C-0.0679612 9.03195 -0.0679612 9.49661 0.203883 9.76767C0.359223 9.92256 0.514563 9.96128 0.708738 9.96128C0.902913 9.96128 1.05825 9.88383 1.21359 9.76767L4.98058 6.01162L8.78641 9.80639C8.94175 9.96128 9.09709 10 9.29126 10C9.48544 10 9.64078 9.92256 9.79612 9.80639C10.068 9.53533 10.068 9.07067 9.79612 8.79961L5.99029 5.00484L9.79612 1.21007C10.068 0.939013 10.068 0.513069 9.79612 0.203291Z"/>
	<defs>
		<linearGradient id="gradient_0" gradientUnits="userSpaceOnUse" x1="-1.1389372" y1="13.5" x2="27" y2="13.5">
			<stop offset="0" stop-color="rgb(235,11,76)"/>
			<stop offset="1" stop-color="rgb(255,57,90)"/>
		</linearGradient>
	</defs>
	<path fill="url(#gradient_0)" stroke="none" transform="scale(4 4)" d="M0 13.5C0 6.06122 6.06122 0 13.5 0C20.9388 0 27 6.06122 27 13.5C27 20.9388 20.9388 27 13.5 27C6.06122 27 0 20.9388 0 13.5ZM1.45627 13.5C1.45627 20.1516 6.8484 25.5437 13.5 25.5437C20.1516 25.5437 25.5437 20.1516 25.5437 13.5C25.5437 6.8484 20.1516 1.45627 13.5 1.45627C6.8484 1.45627 1.45627 6.8484 1.45627 13.5Z" fill-rule="evenodd"/>
</svg>
