<?xml version="1.0" encoding="utf-8" ?>
<svg xmlns="http://www.w3.org/2000/svg" xmlns:xlink="http://www.w3.org/1999/xlink" width="96" height="96">
	<defs>
		<linearGradient id="gradient_0" gradientUnits="userSpaceOnUse" x1="-0.73777825" y1="8.7449999" x2="17.49" y2="8.7449999">
			<stop offset="0" stop-color="rgb(235,11,76)"/>
			<stop offset="1" stop-color="rgb(255,57,90)"/>
		</linearGradient>
	</defs>
	<path fill="url(#gradient_0)" stroke="none" transform="matrix(4 0 0 4 12 12)" d="M11.71 11L12.5 11L17.49 16L16 17.49L11 12.5L11 11.71L10.73 11.43C9.59 12.41 8.11 13 6.5 13C2.91 13 0 10.09 0 6.5C0 2.91 2.91 0 6.5 0C10.09 0 13 2.91 13 6.5C13 8.11 12.41 9.59 11.43 10.73L11.71 11ZM2 6.5C2 8.99 4.01 11 6.5 11C8.99 11 11 8.99 11 6.5C11 4.01 8.99 2 6.5 2C4.01 2 2 4.01 2 6.5Z" fill-rule="evenodd"/>
</svg>
