<?xml version="1.0" encoding="utf-8" ?>
<svg xmlns="http://www.w3.org/2000/svg" xmlns:xlink="http://www.w3.org/1999/xlink" width="96" height="96">
	<defs>
		<clipPath id="clip_0">
			<rect x="-624" y="-7792" width="5760" height="11436" clip-rule="evenodd"/>
		</clipPath>
		<linearGradient id="gradient_0" gradientUnits="userSpaceOnUse" x1="-0.75929153" y1="10" x2="18" y2="10">
			<stop offset="0" stop-color="rgb(235,11,76)"/>
			<stop offset="1" stop-color="rgb(255,57,90)"/>
		</linearGradient>
	</defs>
	<g clip-path="url(#clip_0)">
		<path fill="url(#gradient_0)" stroke="none" transform="matrix(4 0 0 4 12 8)" d="M11 2C11 0.9 10.1 0 9 0C7.9 0 7 0.9 7 2C7 3.1 7.9 4 9 4C10.1 4 11 3.1 11 2ZM12 7L18 7L18 5L0 5L0 7L6 7L6 20L8 20L8 14L10 14L10 20L12 20L12 7Z" fill-rule="evenodd"/>
	</g>
</svg>
